<svg xmlns="http://www.w3.org/2000/svg" viewBox="0 0 1100 380" role="img" aria-labelledby="t2">
  <title id="t2">Оценка TO-BE / MVP</title>
  <rect width="1100" height="380" fill="#f6f7f9"/>
  <text x="550" y="40" text-anchor="middle" fill="#0f172a" font-family="Segoe UI, Arial, sans-serif" font-size="22" font-weight="600">Оценка TO-BE / MVP</text>
  <circle cx="40" cy="150" r="11" fill="none" stroke="#0f766e" stroke-width="2"/>
  <line x1="51" y1="150" x2="90" y2="150" stroke="#0f766e" stroke-width="2"/>
  <rect x="90" y="112" width="170" height="76" rx="10" fill="#ffffff" stroke="#0f766e" stroke-width="2"/>
  <text x="175" y="145" text-anchor="middle" fill="#0f172a" font-family="Segoe UI, Arial, sans-serif" font-size="14">Закрытие задачи</text>
  <text x="175" y="166" text-anchor="middle" fill="#5b6b7c" font-family="Segoe UI, Arial, sans-serif" font-size="11">в Redmine</text>
  <line x1="175" y1="188" x2="175" y2="230" stroke="#0f766e" stroke-width="1.5" stroke-dasharray="4 3"/>
  <rect x="70" y="230" width="210" height="70" rx="8" fill="#eef1f5" stroke="#d5dce6" stroke-width="1.5" stroke-dasharray="5 4"/>
  <text x="175" y="258" text-anchor="middle" fill="#0f766e" font-family="Consolas, monospace" font-size="11">Ответственный исполнитель</text>
  <text x="175" y="278" text-anchor="middle" fill="#0f766e" font-family="Consolas, monospace" font-size="11">+ Сложность</text>
  <line x1="260" y1="150" x2="300" y2="150" stroke="#0f766e" stroke-width="2" marker-end="url(#b)"/>
  <rect x="300" y="112" width="170" height="76" rx="10" fill="#ffffff" stroke="#0f766e" stroke-width="2"/>
  <text x="385" y="145" text-anchor="middle" fill="#0f172a" font-family="Segoe UI, Arial, sans-serif" font-size="14">Автосбор метрик</text>
  <text x="385" y="166" text-anchor="middle" fill="#5b6b7c" font-family="Segoe UI, Arial, sans-serif" font-size="11">оценка по факту работ</text>
  <line x1="470" y1="150" x2="510" y2="150" stroke="#0f766e" stroke-width="2" marker-end="url(#b)"/>
  <rect x="510" y="112" width="170" height="76" rx="10" fill="#ffffff" stroke="#0f766e" stroke-width="2"/>
  <text x="595" y="145" text-anchor="middle" fill="#0f172a" font-family="Segoe UI, Arial, sans-serif" font-size="14">Оценка РГ</text>
  <text x="595" y="166" text-anchor="middle" fill="#5b6b7c" font-family="Segoe UI, Arial, sans-serif" font-size="11">по своим специалистам</text>
  <line x1="680" y1="150" x2="720" y2="150" stroke="#0f766e" stroke-width="2" marker-end="url(#b)"/>
  <rect x="720" y="104" width="250" height="92" rx="10" fill="#ffffff" stroke="#0f766e" stroke-width="2"/>
  <text x="845" y="138" text-anchor="middle" fill="#0f172a" font-family="Segoe UI, Arial, sans-serif" font-size="14">Прозрачные решения</text>
  <text x="845" y="160" text-anchor="middle" fill="#5b6b7c" font-family="Segoe UI, Arial, sans-serif" font-size="12">РП — кого брать на проект</text>
  <text x="845" y="180" text-anchor="middle" fill="#5b6b7c" font-family="Segoe UI, Arial, sans-serif" font-size="12">РГ — кого повышать</text>
  <line x1="970" y1="150" x2="1020" y2="150" stroke="#0f766e" stroke-width="2"/>
  <circle cx="1034" cy="150" r="11" fill="none" stroke="#0f766e" stroke-width="2"/>
  <circle cx="1034" cy="150" r="6" fill="none" stroke="#0f766e" stroke-width="2"/>
  <text x="550" y="350" text-anchor="middle" fill="#5b6b7c" font-family="Consolas, monospace" font-size="12">В прод ушли поля MVP; полный контур бюджетирования остался на уровне концепции</text>
  <defs>
    <marker id="b" markerWidth="8" markerHeight="8" refX="6" refY="3" orient="auto">
      <path d="M0,0 L6,3 L0,6 Z" fill="#0f766e"/>
    </marker>
  </defs>
</svg>
