<svg xmlns="http://www.w3.org/2000/svg" viewBox="0 0 1100 380" role="img" aria-labelledby="t2">
  <title id="t2">F5=:0 TO-BE / MVP</title>
  <rect width="1100" height="380" fill="#0b1220"/>
  <text x="550" y="40" text-anchor="middle" fill="#e7eef8" font-family="Segoe UI, Arial, sans-serif" font-size="22" font-weight="600">F5=:0 TO-BE / MVP</text>
  <circle cx="40" cy="150" r="11" fill="none" stroke="#64ffda" stroke-width="2"/>
  <line x1="51" y1="150" x2="90" y2="150" stroke="#64ffda" stroke-width="2"/>
  <rect x="90" y="112" width="170" height="76" rx="10" fill="#121a2b" stroke="#64ffda" stroke-width="2"/>
  <text x="175" y="145" text-anchor="middle" fill="#e7eef8" font-family="Segoe UI, Arial, sans-serif" font-size="14">0:@KB85 7040G8</text>
  <text x="175" y="166" text-anchor="middle" fill="#9aa8bd" font-family="Segoe UI, Arial, sans-serif" font-size="11">2 Redmine</text>
  <line x1="175" y1="188" x2="175" y2="230" stroke="#64ffda" stroke-width="1.5" stroke-dasharray="4 3"/>
  <rect x="70" y="230" width="210" height="70" rx="8" fill="#182235" stroke="#2a3850" stroke-width="1.5" stroke-dasharray="5 4"/>
  <text x="175" y="258" text-anchor="middle" fill="#64ffda" font-family="Consolas, monospace" font-size="11">B25BAB25==K9 8A?>;=8B5;L</text>
  <text x="175" y="278" text-anchor="middle" fill="#64ffda" font-family="Consolas, monospace" font-size="11">+ !;>6=>ABL</text>
  <line x1="260" y1="150" x2="300" y2="150" stroke="#64ffda" stroke-width="2" marker-end="url(#b)"/>
  <rect x="300" y="112" width="170" height="76" rx="10" fill="#121a2b" stroke="#64ffda" stroke-width="2"/>
  <text x="385" y="145" text-anchor="middle" fill="#e7eef8" font-family="Segoe UI, Arial, sans-serif" font-size="14">2B>A1>@ <5B@8:</text>
  <text x="385" y="166" text-anchor="middle" fill="#9aa8bd" font-family="Segoe UI, Arial, sans-serif" font-size="11">>F5=:0 ?> D0:BC @01>B</text>
  <line x1="470" y1="150" x2="510" y2="150" stroke="#64ffda" stroke-width="2" marker-end="url(#b)"/>
  <rect x="510" y="112" width="170" height="76" rx="10" fill="#121a2b" stroke="#64ffda" stroke-width="2"/>
  <text x="595" y="145" text-anchor="middle" fill="#e7eef8" font-family="Segoe UI, Arial, sans-serif" font-size="14">F5=:0  </text>
  <text x="595" y="166" text-anchor="middle" fill="#9aa8bd" font-family="Segoe UI, Arial, sans-serif" font-size="11">?> A2>8< A?5F80;8AB0<</text>
  <line x1="680" y1="150" x2="720" y2="150" stroke="#64ffda" stroke-width="2" marker-end="url(#b)"/>
  <rect x="720" y="104" width="250" height="92" rx="10" fill="#121a2b" stroke="#64ffda" stroke-width="2"/>
  <text x="845" y="138" text-anchor="middle" fill="#e7eef8" font-family="Segoe UI, Arial, sans-serif" font-size="14">@>7@0G=K5 @5H5=8O</text>
  <text x="845" y="160" text-anchor="middle" fill="#9aa8bd" font-family="Segoe UI, Arial, sans-serif" font-size="12">   :>3> 1@0BL =0 ?@>5:B</text>
  <text x="845" y="180" text-anchor="middle" fill="#9aa8bd" font-family="Segoe UI, Arial, sans-serif" font-size="12">   :>3> ?>2KH0BL</text>
  <line x1="970" y1="150" x2="1020" y2="150" stroke="#64ffda" stroke-width="2"/>
  <circle cx="1034" cy="150" r="11" fill="none" stroke="#64ffda" stroke-width="2"/>
  <circle cx="1034" cy="150" r="6" fill="none" stroke="#64ffda" stroke-width="2"/>
  <text x="550" y="350" text-anchor="middle" fill="#9aa8bd" font-family="Consolas, monospace" font-size="12"> ?@>4 CH;8 ?>;O MVP; ?>;=K9 :>=BC@ 1N465B8@>20=8O >AB0;AO =0 C@>2=5 :>=F5?F88</text>
  <defs>
    <marker id="b" markerWidth="8" markerHeight="8" refX="6" refY="3" orient="auto">
      <path d="M0,0 L6,3 L0,6 Z" fill="#64ffda"/>
    </marker>
  </defs>
</svg>
